<!-- https://nodejs.org/en/about/resources/ -->
<svg
  xmlns:dc="http://purl.org/dc/elements/1.1/"
  xmlns:cc="http://creativecommons.org/ns#"
  xmlns:rdf="http://www.w3.org/1999/02/22-rdf-syntax-ns#"
  xmlns:svg="http://www.w3.org/2000/svg"
  xmlns="http://www.w3.org/2000/svg"
  viewBox="0 0 800 800"
  height="800"
  width="800"
  xml:space="preserve"
  id="svg2"
  version="1.1"
>
  <metadata id="metadata8">
    <rdf:RDF>
      <cc:Work rdf:about="">
        <dc:format>image/svg+xml</dc:format>
        <dc:type rdf:resource="http://purl.org/dc/dcmitype/StillImage" />
      </cc:Work>
    </rdf:RDF>
  </metadata>
  <defs id="defs6">
    <clipPath id="clipPath18" clipPathUnits="userSpaceOnUse">
      <path id="path16" d="M 0,600 H 600 V 0 H 0 Z" />
    </clipPath>
    <linearGradient
      id="linearGradient68"
      spreadMethod="pad"
      gradientTransform="matrix(94.203888,0,0,-94.203888,194.19629,320.19702)"
      gradientUnits="userSpaceOnUse"
      y2="0"
      x2="1"
      y1="0"
      x1="0"
    >
      <stop id="stop60" offset="0" style="stop-opacity:1;stop-color:#ffffff" />
      <stop
        id="stop62"
        offset="0.00530134"
        style="stop-opacity:1;stop-color:#ffffff"
      />
      <stop
        id="stop64"
        offset="0.72538782"
        style="stop-opacity:1;stop-color:#afb1b3"
      />
      <stop id="stop66" offset="1" style="stop-opacity:1;stop-color:#afb1b3" />
    </linearGradient>
    <clipPath id="clipPath78" clipPathUnits="userSpaceOnUse">
      <path
        id="path76"
        d="m 238.766,373.131 -42.03,-24.254 c -1.572,-0.906 -2.539,-2.582 -2.539,-4.397 v 0 -48.546 c 0,-1.814 0.967,-3.489 2.537,-4.397 v 0 l 42.031,-24.274 c 1.571,-0.907 3.506,-0.907 5.077,0 v 0 l 42.02,24.274 c 1.571,0.908 2.538,2.583 2.538,4.397 v 0 48.548 c 0,1.813 -0.967,3.489 -2.538,4.395 v 0 l -42.021,24.254 c -0.785,0.454 -1.661,0.68 -2.538,0.68 v 0 c -0.876,0 -1.752,-0.226 -2.537,-0.68"
      />
    </clipPath>
    <clipPath id="clipPath86" clipPathUnits="userSpaceOnUse">
      <path id="path84" d="m 195.182,373.659 h 91.752 V 266.59 h -91.752 z" />
    </clipPath>
    <linearGradient
      id="linearGradient116"
      spreadMethod="pad"
      gradientTransform="matrix(97.177795,0,0,-97.177795,193.54504,320.26605)"
      gradientUnits="userSpaceOnUse"
      y2="0"
      x2="1"
      y1="0"
      x1="0"
    >
      <stop id="stop108" offset="0" style="stop-opacity:1;stop-color:#afb1b3" />
      <stop
        id="stop110"
        offset="0.27461227"
        style="stop-opacity:1;stop-color:#afb1b3"
      />
      <stop
        id="stop112"
        offset="0.994699"
        style="stop-opacity:1;stop-color:#ffffff"
      />
      <stop id="stop114" offset="1" style="stop-opacity:1;stop-color:#ffffff" />
    </linearGradient>
  </defs>
  <g transform="matrix(1.3333333,0,0,-1.3333333,0,800)" id="g10">
    <g id="g12">
      <g clip-path="url(#clipPath18)" id="g14">
        <g transform="translate(296.9532,165.0556)" id="g20">
          <path
            id="path22"
            style="fill:#ffffff;fill-opacity:1;fill-rule:nonzero;stroke:none"
            d="m 0,0 c -1.46,0 -2.912,0.381 -4.19,1.121 l -13.338,7.892 c -1.991,1.114 -1.019,1.509 -0.362,1.738 2.657,0.922 3.195,1.135 6.031,2.743 0.295,0.167 0.687,0.103 0.992,-0.076 L -0.62,7.335 c 0.371,-0.206 0.895,-0.206 1.237,0 l 39.95,23.058 c 0.372,0.212 0.61,0.64 0.61,1.081 v 46.104 c 0,0.451 -0.238,0.872 -0.62,1.101 L 0.624,101.717 c -0.369,0.216 -0.859,0.216 -1.231,0 L -40.53,78.672 c -0.388,-0.222 -0.634,-0.657 -0.634,-1.094 V 31.474 c 0,-0.441 0.246,-0.859 0.63,-1.068 l 10.944,-6.323 c 5.938,-2.969 9.574,0.528 9.574,4.041 v 45.519 c 0,0.644 0.517,1.151 1.161,1.151 h 5.065 c 0.634,0 1.158,-0.507 1.158,-1.151 V 28.124 c 0,-7.925 -4.316,-12.47 -11.829,-12.47 -2.309,0 -4.127,0 -9.202,2.501 l -10.476,6.031 c -2.588,1.496 -4.19,4.293 -4.19,7.288 v 46.104 c 0,2.995 1.602,5.792 4.19,7.281 l 39.949,23.085 c 2.528,1.429 5.888,1.429 8.396,0 L 44.153,84.859 c 2.587,-1.496 4.196,-4.286 4.196,-7.281 V 31.474 c 0,-2.995 -1.609,-5.782 -4.196,-7.288 L 4.206,1.121 C 2.929,0.381 1.48,0 0,0"
          />
        </g>
        <g transform="translate(309.2934,196.8184)" id="g24">
          <path
            id="path26"
            style="fill:#ffffff;fill-opacity:1;fill-rule:nonzero;stroke:none"
            d="m 0,0 c -17.482,0 -21.144,8.024 -21.144,14.755 0,0.64 0.514,1.151 1.154,1.151 h 5.165 c 0.577,0 1.058,-0.415 1.148,-0.978 0.78,-5.258 3.105,-7.912 13.677,-7.912 8.416,0 11.999,1.904 11.999,6.369 0,2.574 -1.016,4.485 -14.095,5.766 -10.931,1.081 -17.692,3.496 -17.692,12.24 0,8.061 6.794,12.868 18.186,12.868 12.798,0 19.131,-4.442 19.933,-13.972 0.03,-0.329 -0.086,-0.644 -0.305,-0.889 -0.219,-0.229 -0.524,-0.369 -0.846,-0.369 h -5.185 c -0.537,0 -1.012,0.382 -1.121,0.903 -1.244,5.533 -4.269,7.301 -12.476,7.301 -9.189,0 -10.257,-3.201 -10.257,-5.6 0,-2.906 1.26,-3.751 13.667,-5.393 C 14.085,24.617 19.917,22.319 19.917,13.69 19.917,4.986 12.659,0 0,0"
          />
        </g>
        <g transform="translate(357.9388,245.6999)" id="g28">
          <path
            id="path30"
            style="fill:#ffffff;fill-opacity:1;fill-rule:nonzero;stroke:none"
            d="m 0,0 h 1.343 c 1.098,0 1.304,0.773 1.304,1.221 0,1.183 -0.816,1.183 -1.264,1.183 H 0 Z m -1.632,3.789 h 2.975 c 1.019,0 3.016,0 3.016,-2.283 0,-1.589 -1.019,-1.914 -1.632,-2.118 1.184,-0.081 1.264,-0.856 1.426,-1.955 0.083,-0.692 0.206,-1.875 0.448,-2.281 H 2.77 C 2.727,-4.442 2.441,-2.241 2.441,-2.12 2.322,-1.63 2.156,-1.387 1.546,-1.387 H 0.04 v -3.461 h -1.672 z m -3.563,-4.298 c 0,-3.586 2.893,-6.479 6.436,-6.479 3.586,0 6.478,2.954 6.478,6.479 0,3.584 -2.932,6.436 -6.478,6.436 -3.503,0 -6.436,-2.81 -6.436,-6.436 M 8.96,-0.531 c 0,-4.236 -3.464,-7.699 -7.699,-7.699 -4.197,0 -7.7,3.422 -7.7,7.699 0,4.359 3.586,7.701 7.7,7.701 4.156,0 7.699,-3.342 7.699,-7.701"
          />
        </g>
        <g transform="translate(173.2428,345.4329)" id="g32">
          <path
            id="path34"
            style="fill:#ffffff;fill-opacity:1;fill-rule:evenodd;stroke:none"
            d="M 0,0 C 0,1.841 -0.969,3.533 -2.558,4.445 L -44.913,28.82 c -0.716,0.422 -1.519,0.641 -2.331,0.674 h -0.438 c -0.81,-0.033 -1.612,-0.252 -2.339,-0.674 L -92.376,4.445 C -93.955,3.533 -94.937,1.841 -94.937,0 l 0.093,-65.635 c 0,-0.913 0.474,-1.762 1.277,-2.21 0.786,-0.471 1.758,-0.471 2.541,0 l 25.172,14.414 c 1.592,0.945 2.561,2.614 2.561,4.439 v 30.664 c 0,1.828 0.968,3.52 2.554,4.429 l 10.718,6.173 c 0.799,0.461 1.672,0.687 2.564,0.687 0.873,0 1.768,-0.226 2.544,-0.687 l 10.715,-6.173 c 1.586,-0.909 2.558,-2.601 2.558,-4.429 v -30.664 c 0,-1.825 0.982,-3.504 2.564,-4.439 l 25.165,-14.414 c 0.789,-0.471 1.775,-0.471 2.557,0 0.78,0.448 1.271,1.297 1.271,2.21 z"
          />
        </g>
        <g transform="translate(373.1093,311.2569)" id="g36">
          <path
            id="path38"
            style="fill:#ffffff;fill-opacity:1;fill-rule:evenodd;stroke:none"
            d="m 0,0 c 0,-0.456 -0.244,-0.879 -0.64,-1.106 l -14.548,-8.386 c -0.395,-0.227 -0.882,-0.227 -1.277,0 l -14.548,8.386 c -0.397,0.227 -0.64,0.65 -0.64,1.106 v 16.799 c 0,0.456 0.243,0.879 0.639,1.108 l 14.547,8.402 c 0.397,0.229 0.884,0.229 1.281,0 L -0.639,17.907 C -0.244,17.678 0,17.255 0,16.799 Z m 3.931,124.403 c -0.793,0.44 -1.76,0.431 -2.543,-0.029 -0.781,-0.459 -1.262,-1.299 -1.262,-2.206 v -65 c 0,-0.639 -0.342,-1.231 -0.894,-1.551 -0.554,-0.32 -1.237,-0.32 -1.791,0 l -10.609,6.112 c -1.582,0.913 -3.529,0.911 -5.112,-10e-4 L -60.651,37.275 c -1.584,-0.914 -2.559,-2.603 -2.559,-4.431 v -48.916 c 0,-1.828 0.975,-3.516 2.557,-4.432 l 42.37,-24.471 c 1.584,-0.914 3.534,-0.914 5.118,0 l 42.377,24.471 c 1.582,0.916 2.558,2.604 2.558,4.432 v 121.936 c 0,1.854 -1.004,3.564 -2.624,4.468 z"
          />
        </g>
        <g transform="translate(518.131,328.495)" id="g40">
          <path
            id="path42"
            style="fill:#ffffff;fill-opacity:1;fill-rule:evenodd;stroke:none"
            d="m 0,0 c 1.576,0.915 2.546,2.601 2.546,4.424 v 11.854 c 0,1.823 -0.97,3.51 -2.548,4.425 l -42.099,24.443 c -1.584,0.921 -3.539,0.922 -5.127,0.007 L -89.584,20.7 c -1.583,-0.914 -2.558,-2.602 -2.558,-4.43 v -48.903 c 0,-1.84 0.987,-3.537 2.584,-4.446 l 42.093,-23.985 c 1.552,-0.886 3.455,-0.896 5.017,-0.028 l 25.46,14.151 c 0.808,0.45 1.311,1.297 1.316,2.219 0.006,0.923 -0.485,1.777 -1.284,2.236 l -42.625,24.465 c -0.796,0.456 -1.286,1.304 -1.286,2.219 v 15.326 c 0,0.914 0.488,1.76 1.281,2.216 l 13.266,7.648 c 0.789,0.456 1.764,0.456 2.554,0 L -30.494,1.74 c 0.793,-0.456 1.28,-1.302 1.28,-2.216 v -12.058 c 0,-0.916 0.49,-1.762 1.283,-2.218 0.793,-0.458 1.77,-0.454 2.561,0.005 z"
          />
        </g>
        <g transform="translate(472.8422,330.7856)" id="g44">
          <path
            id="path46"
            style="fill:#ffffff;fill-opacity:1;fill-rule:evenodd;stroke:none"
            d="m 0,0 c 0.304,0.176 0.678,0.176 0.982,0 l 8.13,-4.69 c 0.304,-0.176 0.491,-0.5 0.491,-0.851 v -9.388 c 0,-0.352 -0.187,-0.675 -0.491,-0.851 l -8.13,-4.691 c -0.304,-0.176 -0.678,-0.176 -0.982,0 l -8.124,4.691 c -0.304,0.176 -0.491,0.499 -0.491,0.851 v 9.388 c 0,0.351 0.187,0.675 0.491,0.851 z"
          />
        </g>
      </g>
    </g>
    <g id="g48">
      <g id="g50">
        <g id="g56">
          <g id="g58">
            <path
              id="path70"
              style="fill:url(#linearGradient68);stroke:none"
              d="m 238.756,373.131 -42.02,-24.254 c -1.572,-0.906 -2.539,-2.582 -2.539,-4.395 v 0 -48.548 c 0,-1.814 0.967,-3.489 2.537,-4.397 v 0 l 42.02,-24.274 c 1.571,-0.907 3.507,-0.907 5.079,0 v 0 l 42.029,24.274 c 1.571,0.908 2.538,2.583 2.538,4.397 v 0 48.546 c 0,1.815 -0.967,3.491 -2.539,4.397 v 0 l -42.03,24.254 c -0.785,0.454 -1.661,0.68 -2.538,0.68 v 0 c -0.876,0 -1.753,-0.226 -2.537,-0.68"
            />
          </g>
        </g>
      </g>
    </g>
    <g id="g72">
      <g clip-path="url(#clipPath78)" id="g74">
        <g id="g80">
          <g id="g82" />
          <g id="g94">
            <g style="opacity:0.66000402" id="g92" clip-path="url(#clipPath86)">
              <g id="g90" transform="translate(285.6486,348.877)">
                <path
                  id="path88"
                  style="fill:#4b4b4b;fill-opacity:1;fill-rule:nonzero;stroke:none"
                  d="m 0,0 -41.843,24.255 c -0.419,0.242 -0.867,0.414 -1.327,0.527 l -47.296,-80.908 c 0.398,-0.479 0.878,-0.896 1.428,-1.214 l 42.093,-24.274 c 1.255,-0.724 2.707,-0.86 4.043,-0.428 L 1.286,-1.128 C 0.94,-0.686 0.517,-0.298 0,0"
                />
              </g>
            </g>
          </g>
        </g>
      </g>
    </g>
    <g id="g96">
      <g id="g98">
        <g id="g104">
          <g id="g106">
            <path
              id="path118"
              style="fill:url(#linearGradient116);stroke:none"
              d="m 240.99,373.802 c -0.771,-0.048 -1.533,-0.272 -2.224,-0.671 v 0 l -41.629,-24.022 45.223,-82.385 c 0.473,0.112 0.935,0.286 1.373,0.539 v 0 l 41.93,24.274 c 1.569,0.908 2.337,2.583 2.337,4.397 v 0 0.19 l -45.36,77.493 c -0.455,0.127 -0.924,0.191 -1.392,0.191 v 0 c -0.086,0 -0.172,-0.002 -0.258,-0.006"
            />
          </g>
        </g>
      </g>
    </g>
  </g>
</svg>
